<?xml version="1.0" encoding="utf-8"?>
<!-- Generator: Adobe Illustrator 24.1.0, SVG Export Plug-In . SVG Version: 6.00 Build 0)  -->
<svg version="1.1" id="Layer_1" xmlns="http://www.w3.org/2000/svg" xmlns:xlink="http://www.w3.org/1999/xlink" x="0px" y="0px"
	 viewBox="0 0 36 36" style="enable-background:new 0 0 36 36;" xml:space="preserve">
<style type="text/css">
	.st0{fill:#B0101C;}
	.st1{fill-opacity:0;}
</style>
<path class="st0" d="M18,2C9.2,2,2,9.2,2,18s7.2,16,16,16s16-7.2,16-16S26.8,2,18,2z M26,17.6c-0.6,0.5-1.4,0.5-2,0L19.4,13v14.1
	c0,0.8-0.6,1.4-1.4,1.4c-0.8,0-1.4-0.6-1.4-1.4v-14l-4.4,4.4c-0.6,0.6-1.4,0.6-2,0s-0.6-1.4,0-2l7.9-7.9l7.9,7.9
	C26.6,16.1,26.6,17,26,17.6C26,17.6,26,17.6,26,17.6L26,17.6z"/>
<rect class="st1" width="36" height="36"/>
</svg>
